# Vertex Count = 24
# Vertex Optimized Count = 8
v 0.05 -0.01 0.025
v -0.05 0.01 0.025
v -0.05 -0.01 0.025
v 0.05 0.01 0.025
v -0.05 0.01 -0.025
v 0.05 0.01 -0.025
v -0.05 -0.01 -0.025
v 0.05 -0.01 -0.025


# Normal Count = 24
# Normal Optimized Count = 6
vn 0 0 1
vn 0 1 0
vn 0 0 -1
vn 0 -1 0
vn -1 0 0
vn 1 0 0


# UV Count = 24
# UV Optimized Count = 14
vt 0.375 0
vt 0.625 0.25
vt 0.625 0
vt 0.375 0.25
vt 0.625 0.5
vt 0.375 0.5
vt 0.625 0.75
vt 0.375 0.75
vt 0.625 1
vt 0.375 1
vt 0.875 0.25
vt 0.875 0
vt 0.125 0
vt 0.125 0.25


# Face Count = 12
f 1/1/1 2/2/1 3/3/1
f 1/1/1 4/4/1 2/2/1
f 4/4/2 5/5/2 2/2/2
f 4/4/2 6/6/2 5/5/2
f 6/6/3 7/7/3 5/5/3
f 6/6/3 8/8/3 7/7/3
f 8/8/4 3/9/4 7/7/4
f 8/8/4 1/10/4 3/9/4
f 3/3/5 5/11/5 7/12/5
f 3/3/5 2/2/5 5/11/5
f 8/13/6 4/4/6 1/1/6
f 8/13/6 6/14/6 4/4/6
