# Vertex Count = 108
# Vertex Optimized Count = 30
v 0.05 -0.005 0.05
v -0.05 0.005 0.05
v -0.05 -0.005 0.05
v 0.05 0.005 0.05
v -0.05 0.005 -0.05
v 0.05 0.005 -0.05
v 0.05 0.005 -0.06
v -0.05 -0.005 -0.06
v -0.05 0.005 -0.06
v 0.05 -0.005 -0.06
v 0.05 -0.005 -0.05
v -0.05 -0.005 -0.05
v -0.06 -0.005 0.05
v -0.06 0.005 -0.05
v -0.06 -0.005 -0.05
v -0.06 0.005 0.05
v 0.06 -0.005 -0.05
v 0.06 0.005 0.05
v 0.06 -0.005 0.05
v 0.06 0.005 -0.05
v 0.05 0.095 -0.05
v -0.05 0.095 -0.06
v -0.05 0.095 -0.05
v 0.05 0.095 -0.06
v -0.06 0.095 -0.05
v -0.06 0.095 0.05
v -0.05 0.095 0.05
v 0.05 0.095 0.05
v 0.06 0.095 0.05
v 0.06 0.095 -0.05


# Normal Count = 108
# Normal Optimized Count = 6
vn 0 0 1
vn 0 1 0
vn 0 0 -1
vn 0 -1 0
vn -1 0 0
vn 1 0 0


# UV Count = 108
# UV Optimized Count = 14
vt 0.375 0
vt 0.625 0.25
vt 0.625 0
vt 0.375 0.25
vt 0.625 0.5
vt 0.375 0.5
vt 0.625 0.75
vt 0.375 0.75
vt 0.625 1
vt 0.375 1
vt 0.875 0.25
vt 0.875 0
vt 0.125 0
vt 0.125 0.25


# Face Count = 60
f 1/1/1 2/2/1 3/3/1
f 1/1/1 4/4/1 2/2/1
f 4/4/2 5/5/2 2/2/2
f 4/4/2 6/6/2 5/5/2
f 7/6/3 8/7/3 9/5/3
f 7/6/3 10/8/3 8/7/3
f 11/8/4 3/9/4 12/7/4
f 11/8/4 1/10/4 3/9/4
f 13/3/5 14/11/5 15/12/5
f 13/3/5 16/2/5 14/11/5
f 17/13/6 18/4/6 19/1/6
f 17/13/6 20/14/6 18/4/6
f 21/6/2 22/5/2 23/5/2
f 21/6/2 24/6/2 22/5/2
f 5/5/5 8/7/5 12/7/5
f 5/5/5 9/5/5 8/7/5
f 5/5/5 22/5/5 9/5/5
f 5/5/5 23/5/5 22/5/5
f 12/7/4 10/8/4 11/8/4
f 12/7/4 8/7/4 10/8/4
f 11/8/6 7/6/6 6/6/6
f 11/8/6 10/8/6 7/6/6
f 7/6/6 21/6/6 6/6/6
f 7/6/6 24/6/6 21/6/6
f 6/6/1 23/5/1 5/5/1
f 6/6/1 21/6/1 23/5/1
f 9/5/3 24/6/3 7/6/3
f 9/5/3 22/5/3 24/6/3
f 3/3/4 15/12/4 12/12/4
f 3/3/4 13/3/4 15/12/4
f 12/12/3 14/11/3 5/11/3
f 12/12/3 15/12/3 14/11/3
f 14/11/3 23/11/3 5/11/3
f 14/11/3 25/11/3 23/11/3
f 23/11/2 26/2/2 27/2/2
f 23/11/2 25/11/2 26/2/2
f 2/2/1 13/3/1 3/3/1
f 2/2/1 16/2/1 13/3/1
f 2/2/1 26/2/1 16/2/1
f 2/2/1 27/2/1 26/2/1
f 5/11/6 27/2/6 2/2/6
f 5/11/6 23/11/6 27/2/6
f 16/2/5 25/11/5 14/11/5
f 16/2/5 26/2/5 25/11/5
f 11/13/4 19/1/4 1/1/4
f 11/13/4 17/13/4 19/1/4
f 1/1/1 18/4/1 4/4/1
f 1/1/1 19/1/1 18/4/1
f 18/4/1 28/4/1 4/4/1
f 18/4/1 29/4/1 28/4/1
f 28/4/2 30/14/2 21/14/2
f 28/4/2 29/4/2 30/14/2
f 6/14/3 17/13/3 11/13/3
f 6/14/3 20/14/3 17/13/3
f 6/14/3 30/14/3 20/14/3
f 6/14/3 21/14/3 30/14/3
f 4/4/5 21/14/5 6/14/5
f 4/4/5 28/4/5 21/14/5
f 20/14/6 29/4/6 18/4/6
f 20/14/6 30/14/6 29/4/6
