# Vertex Count = 61
# Vertex Optimized Count = 22
v -0.06 -0.05253042 0.05525378
v -0.06 0.05253042 -0.05525378
v -0.06 -0.05253042 -0.05525042
v -0.06 0.05253042 0.05525378
v -0.04998639 -0.04253042 0.05525378
v -0.04998639 0.05253042 -0.04471899
v -0.04998639 0.05253042 0.05525378
v -0.04998639 -0.04253042 -0.04471899
v -2.384186E-09 -0.05253042 -0.05525042
v -2.384186E-09 0.05253042 -0.05525378
v 0.06 0.05253042 -0.05525378
v 0.06 -0.05253042 -0.05525042
v -2.384186E-09 -0.05253042 0.05525378
v 0.06 -0.05253042 0.05525378
v -2.384186E-09 -0.04253042 -0.04471899
v -2.384186E-09 -0.04253042 0.05525378
v 0.04998638 -0.04253042 0.05525378
v 0.04998638 -0.04253042 -0.04471899
v -2.384186E-09 0.05253042 -0.04471899
v 0.04998638 0.05253042 -0.04471899
v 0.06 0.05253042 0.05525378
v 0.04998638 0.05253042 0.05525378


# Normal Count = 61
# Normal Optimized Count = 7
vn -1 0 0
vn 1 0 0
vn 0 -3.195228E-05 -1
vn 0 -1 0
vn 0 1 0
vn 0 0 1
vn 0 1 -3.292267E-07


# UV Count = 61
# UV Optimized Count = 17
vt 1 0
vt 0 1
vt 0 0
vt 1 1
vt 0.5 0
vt 0.5 1
vt 0.9 1
vt 0.9770398 0
vt 0.9 0.1
vt 0.5 0.1
vt 0.1 0.1
vt 0.02296022 0
vt 0.1 1
vt 0.0196802 0
vt 0.4911694 0.1
vt 0.4906446 0
vt 0.9803198 0


# Face Count = 40
f 1/1/1 2/2/1 3/3/1
f 1/1/1 4/4/1 2/2/1
f 5/1/2 6/2/2 7/4/2
f 5/1/2 8/3/2 6/2/2
f 9/5/3 2/4/3 10/6/3
f 9/5/3 3/1/3 2/4/3
f 9/5/3 10/6/3 11/2/3
f 9/5/3 11/2/3 12/3/3
f 13/5/4 3/4/4 9/6/4
f 13/5/4 1/1/4 3/4/4
f 13/5/4 9/6/4 12/2/4
f 13/5/4 12/2/4 14/3/4
f 15/6/5 5/1/5 16/5/5
f 15/6/5 8/4/5 5/1/5
f 15/6/5 16/5/5 17/3/5
f 15/6/5 17/3/5 18/2/5
f 19/6/6 8/1/6 15/5/6
f 19/6/6 6/4/6 8/1/6
f 19/6/6 15/5/6 18/3/6
f 19/6/6 18/3/6 20/2/6
f 14/1/2 11/2/2 21/4/2
f 14/1/2 12/3/2 11/2/2
f 17/1/1 20/2/1 18/3/1
f 17/1/1 22/4/1 20/2/1
f 7/7/6 1/8/6 5/9/6
f 7/7/6 4/4/6 1/8/6
f 5/9/6 1/8/6 13/5/6
f 5/9/6 13/5/6 16/10/6
f 17/11/6 16/10/6 13/5/6
f 17/11/6 13/5/6 14/12/6
f 22/13/6 17/11/6 14/12/6
f 22/13/6 14/12/6 21/2/6
f 6/11/5 4/2/5 7/13/5
f 6/11/5 2/14/5 4/2/5
f 19/15/7 2/14/5 6/11/5
f 19/15/7 10/16/7 2/14/5
f 19/15/7 11/17/7 10/16/7
f 19/15/7 20/9/7 11/17/7
f 20/9/7 21/4/5 11/17/7
f 20/9/7 22/7/5 21/4/5
