# Vertex Count = 6
# Vertex Optimized Count = 6
v -2.384186E-09 -0.04253042 -0.04471899
v -0.04998639 -0.04253042 0.05525378
v -2.384186E-09 -0.04253042 0.05525378
v -0.04998639 -0.04253042 -0.04471899
v 0.04998638 -0.04253042 0.05525378
v 0.04998638 -0.04253042 -0.04471899


# Normal Count = 6
# Normal Optimized Count = 1
vn 0 1 0


# UV Count = 6
# UV Optimized Count = 6
vt 0.5 1
vt 1 0
vt 0.5 0
vt 1 1
vt 0 0
vt 0 1


# Face Count = 4
f 1/1/1 2/2/1 3/3/1
f 1/1/1 4/4/1 2/2/1
f 1/1/1 3/3/1 5/5/1
f 1/1/1 5/5/1 6/6/1
