# Vertex Count = 82
v -0.9510571 -0.5 -0.3090172
v -0.9510571 0.5 -0.3090172
v -0.8090175 -0.5 -0.5877856
v -0.8090175 0.5 -0.5877856
v -0.5877856 -0.5 -0.8090175
v -0.5877856 0.5 -0.8090175
v -0.3090172 -0.5 -0.951057
v -0.3090172 0.5 -0.951057
v 0 -0.5 -1
v 0 0.5 -1
v 0.3090172 -0.5 -0.951057
v 0.3090172 0.5 -0.951057
v 0.5877855 -0.5 -0.8090173
v 0.5877855 0.5 -0.8090173
v 0.8090172 -0.5 -0.5877854
v 0.8090172 0.5 -0.5877854
v 0.9510568 -0.5 -0.3090171
v 0.9510568 0.5 -0.3090171
v 1 -0.5 0
v 1 0.5 0
v 0.9510568 -0.5 0.3090171
v 0.9510568 0.5 0.3090171
v 0.8090172 -0.5 0.5877854
v 0.8090172 0.5 0.5877854
v 0.5877854 -0.5 0.8090171
v 0.5877854 0.5 0.8090171
v 0.3090171 -0.5 0.9510567
v 0.3090171 0.5 0.9510567
v 2.980232E-08 -0.5 1
v 2.980232E-08 0.5 1
v -0.309017 -0.5 0.9510566
v -0.309017 0.5 0.9510566
v -0.5877852 -0.5 0.8090171
v -0.5877852 0.5 0.8090171
v -0.809017 -0.5 0.5877853
v -0.809017 0.5 0.5877853
v -0.9510565 -0.5 0.309017
v -0.9510565 0.5 0.309017
v -1 -0.5 0
v -1 0.5 0
v -0.8090175 -0.5 -0.5877856
v 0 -0.5 0
v -0.9510571 -0.5 -0.3090172
v -0.5877856 -0.5 -0.8090175
v -0.3090172 -0.5 -0.951057
v 0 -0.5 -1
v 0.3090172 -0.5 -0.951057
v 0.5877855 -0.5 -0.8090173
v 0.8090172 -0.5 -0.5877854
v 0.9510568 -0.5 -0.3090171
v 1 -0.5 0
v 0.9510568 -0.5 0.3090171
v 0.8090172 -0.5 0.5877854
v 0.5877854 -0.5 0.8090171
v 0.3090171 -0.5 0.9510567
v 2.980232E-08 -0.5 1
v -0.309017 -0.5 0.9510566
v -0.5877852 -0.5 0.8090171
v -0.809017 -0.5 0.5877853
v -0.9510565 -0.5 0.309017
v -1 -0.5 0
v -0.9510571 0.5 -0.3090172
v 0 0.5 0
v -0.8090175 0.5 -0.5877856
v -0.5877856 0.5 -0.8090175
v -0.3090172 0.5 -0.951057
v 0 0.5 -1
v 0.3090172 0.5 -0.951057
v 0.5877855 0.5 -0.8090173
v 0.8090172 0.5 -0.5877854
v 0.9510568 0.5 -0.3090171
v 1 0.5 0
v 0.9510568 0.5 0.3090171
v 0.8090172 0.5 0.5877854
v 0.5877854 0.5 0.8090171
v 0.3090171 0.5 0.9510567
v 2.980232E-08 0.5 1
v -0.309017 0.5 0.9510566
v -0.5877852 0.5 0.8090171
v -0.809017 0.5 0.5877853
v -0.9510565 0.5 0.309017
v -1 0.5 0

# Normal Count = 82
vn -0.9660261 0 -0.2584449
vn -0.9334423 0 -0.3587276
vn -0.8388807 0 -0.5443153
vn -0.776903 0 -0.6296204
vn -0.6296201 0 -0.7769031
vn -0.5443152 0 -0.8388808
vn -0.3587281 0 -0.9334421
vn -0.258446 0 -0.9660257
vn -0.05272127 0 -0.9986093
vn 0.05272146 0 -0.9986092
vn 0.2584463 0 -0.9660256
vn 0.3587284 0 -0.933442
vn 0.5443155 0 -0.8388806
vn 0.6296204 0 -0.7769028
vn 0.7769032 0 -0.6296201
vn 0.8388808 0 -0.5443152
vn 0.9334421 0 -0.3587282
vn 0.9660257 0 -0.2584461
vn 0.9986093 0 -0.05272135
vn 0.9986093 0 0.05272135
vn 0.9660256 0 0.2584462
vn 0.933442 0 0.3587283
vn 0.8388806 0 0.5443155
vn 0.7769029 0 0.6296204
vn 0.6296202 0 0.7769031
vn 0.5443153 0 0.8388808
vn 0.3587282 0 0.9334421
vn 0.2584461 0 0.9660256
vn 0.05272129 0 0.9986093
vn -0.05272149 0 0.9986092
vn -0.2584463 0 0.9660256
vn -0.3587283 0 0.933442
vn -0.5443152 0 0.8388807
vn -0.6296203 0 0.776903
vn -0.776903 0 0.6296203
vn -0.8388807 0 0.5443152
vn -0.9334421 0 0.3587282
vn -0.9660256 0 0.2584462
vn -0.9986092 0 0.05272201
vn -0.9986093 0 -0.05272005
vn 0 -1 0
vn 0 -1 0
vn 0 -1 0
vn 0 -1 0
vn 0 -1 0
vn 0 -1 0
vn 0 -1 0
vn 0 -1 0
vn 0 -1 0
vn 0 -1 0
vn 0 -1 0
vn 0 -1 0
vn 0 -1 0
vn 0 -1 0
vn 0 -1 0
vn 0 -1 0
vn 0 -1 0
vn 0 -1 0
vn 0 -1 0
vn 0 -1 0
vn 0 -1 0
vn 0 1 0
vn 0 1 0
vn 0 1 0
vn 0 1 0
vn 0 1 0
vn 0 1 0
vn 0 1 0
vn 0 1 0
vn 0 1 0
vn 0 1 0
vn 0 1 0
vn 0 1 0
vn 0 1 0
vn 0 1 0
vn 0 1 0
vn 0 1 0
vn 0 1 0
vn 0 1 0
vn 0 1 0
vn 0 1 0
vn 0 1 0

# UV Count = 82
vt 0 0
vt 0 0
vt 0 0
vt 0 0
vt 0 0
vt 0 0
vt 0 0
vt 0 0
vt 0 0
vt 0 0
vt 0 0
vt 0 0
vt 0 0
vt 0 0
vt 0 0
vt 0 0
vt 0 0
vt 0 0
vt 0 0
vt 0 0
vt 0 0
vt 0 0
vt 0 0
vt 0 0
vt 0 0
vt 0 0
vt 0 0
vt 0 0
vt 0 0
vt 0 0
vt 0 0
vt 0 0
vt 0 0
vt 0 0
vt 0 0
vt 0 0
vt 0 0
vt 0 0
vt 0 0
vt 0 0
vt 0 0
vt 0 0
vt 0 0
vt 0 0
vt 0 0
vt 0 0
vt 0 0
vt 0 0
vt 0 0
vt 0 0
vt 0 0
vt 0 0
vt 0 0
vt 0 0
vt 0 0
vt 0 0
vt 0 0
vt 0 0
vt 0 0
vt 0 0
vt 0 0
vt 0 0
vt 0 0
vt 0 0
vt 0 0
vt 0 0
vt 0 0
vt 0 0
vt 0 0
vt 0 0
vt 0 0
vt 0 0
vt 0 0
vt 0 0
vt 0 0
vt 0 0
vt 0 0
vt 0 0
vt 0 0
vt 0 0
vt 0 0
vt 0 0

# Face Count = 80
f 1/1/1 2/2/2 3/3/3
f 2/2/2 4/4/4 3/3/3
f 3/3/3 4/4/4 5/5/5
f 4/4/4 6/6/6 5/5/5
f 5/5/5 6/6/6 7/7/7
f 6/6/6 8/8/8 7/7/7
f 7/7/7 8/8/8 9/9/9
f 8/8/8 10/10/10 9/9/9
f 9/9/9 10/10/10 11/11/11
f 10/10/10 12/12/12 11/11/11
f 11/11/11 12/12/12 13/13/13
f 12/12/12 14/14/14 13/13/13
f 13/13/13 14/14/14 15/15/15
f 14/14/14 16/16/16 15/15/15
f 15/15/15 16/16/16 17/17/17
f 16/16/16 18/18/18 17/17/17
f 17/17/17 18/18/18 19/19/19
f 18/18/18 20/20/20 19/19/19
f 19/19/19 20/20/20 21/21/21
f 20/20/20 22/22/22 21/21/21
f 21/21/21 22/22/22 23/23/23
f 22/22/22 24/24/24 23/23/23
f 23/23/23 24/24/24 25/25/25
f 24/24/24 26/26/26 25/25/25
f 25/25/25 26/26/26 27/27/27
f 26/26/26 28/28/28 27/27/27
f 27/27/27 28/28/28 29/29/29
f 28/28/28 30/30/30 29/29/29
f 29/29/29 30/30/30 31/31/31
f 30/30/30 32/32/32 31/31/31
f 31/31/31 32/32/32 33/33/33
f 32/32/32 34/34/34 33/33/33
f 33/33/33 34/34/34 35/35/35
f 34/34/34 36/36/36 35/35/35
f 35/35/35 36/36/36 37/37/37
f 36/36/36 38/38/38 37/37/37
f 37/37/37 38/38/38 39/39/39
f 38/38/38 40/40/40 39/39/39
f 39/39/39 40/40/40 1/1/1
f 40/40/40 2/2/2 1/1/1
f 41/41/41 42/42/42 43/43/43
f 44/44/44 42/42/42 41/41/41
f 45/45/45 42/42/42 44/44/44
f 46/46/46 42/42/42 45/45/45
f 47/47/47 42/42/42 46/46/46
f 48/48/48 42/42/42 47/47/47
f 49/49/49 42/42/42 48/48/48
f 50/50/50 42/42/42 49/49/49
f 51/51/51 42/42/42 50/50/50
f 52/52/52 42/42/42 51/51/51
f 53/53/53 42/42/42 52/52/52
f 54/54/54 42/42/42 53/53/53
f 55/55/55 42/42/42 54/54/54
f 56/56/56 42/42/42 55/55/55
f 57/57/57 42/42/42 56/56/56
f 58/58/58 42/42/42 57/57/57
f 59/59/59 42/42/42 58/58/58
f 60/60/60 42/42/42 59/59/59
f 61/61/61 42/42/42 60/60/60
f 43/43/43 42/42/42 61/61/61
f 62/62/62 63/63/63 64/64/64
f 64/64/64 63/63/63 65/65/65
f 65/65/65 63/63/63 66/66/66
f 66/66/66 63/63/63 67/67/67
f 67/67/67 63/63/63 68/68/68
f 68/68/68 63/63/63 69/69/69
f 69/69/69 63/63/63 70/70/70
f 70/70/70 63/63/63 71/71/71
f 71/71/71 63/63/63 72/72/72
f 72/72/72 63/63/63 73/73/73
f 73/73/73 63/63/63 74/74/74
f 74/74/74 63/63/63 75/75/75
f 75/75/75 63/63/63 76/76/76
f 76/76/76 63/63/63 77/77/77
f 77/77/77 63/63/63 78/78/78
f 78/78/78 63/63/63 79/79/79
f 79/79/79 63/63/63 80/80/80
f 80/80/80 63/63/63 81/81/81
f 81/81/81 63/63/63 82/82/82
f 82/82/82 63/63/63 62/62/62
